<?xml version="1.0" encoding="utf-8"?>
<!-- Generator: Adobe Illustrator 22.0.0, SVG Export Plug-In . SVG Version: 6.00 Build 0)  -->
<svg version="1.1" id="katman_1" xmlns="http://www.w3.org/2000/svg" xmlns:xlink="http://www.w3.org/1999/xlink" x="0px" y="0px"
	 viewBox="0 0 500 500" style="enable-background:new 0 0 500 500;" xml:space="preserve">
<style type="text/css">
	.st0{fill:#D00000;}
	.st1{fill:#9D0208;}
	.st2{fill:#FFFFFF;}
	.st3{fill:none;}
</style>
<g>
	<g>
		<circle class="st0" cx="250" cy="250" r="250"/>
	</g>
</g>
<path class="st1" d="M358,142c-7.1-7.1-16.5-11-26.5-11s-19.4,3.9-26.5,11l-55,55l-54.9-55c-7.1-7.1-16.5-11-26.5-11
	s-19.4,3.9-26.5,11c-14.6,14.6-14.6,38.4,0,53l54.9,55l-55,54.9c-14.6,14.6-14.6,38.4,0,53l140,140C394.5,483.6,483.6,394.5,498,282
	L358,142z"/>
<g>
	<path class="st2" d="M331.5,152c4.2,0,8.4,1.6,11.7,4.8c6.4,6.4,6.4,16.9,0,23.3L273.3,250l69.8,69.8c6.4,6.4,6.4,16.9,0,23.3
		c-3.2,3.2-7.4,4.8-11.7,4.8c-4.2,0-8.4-1.6-11.7-4.8L250,273.3l-69.8,69.8c-3.2,3.2-7.4,4.8-11.7,4.8c-4.2,0-8.4-1.6-11.7-4.8
		c-6.4-6.4-6.4-16.9,0-23.3l69.8-69.8l-69.8-69.8c-6.4-6.4-6.4-16.9,0-23.3c3.2-3.2,7.4-4.8,11.7-4.8c4.2,0,8.4,1.6,11.7,4.8
		l69.8,69.8l69.8-69.8C323,153.7,327.2,152,331.5,152 M331.5,131c-10,0-19.4,3.9-26.5,11l-55,55l-54.9-55c-7.1-7.1-16.5-11-26.5-11
		s-19.4,3.9-26.5,11c-14.6,14.6-14.6,38.4,0,53l54.9,55l-55,54.9c-14.6,14.6-14.6,38.4,0,53c7.1,7.1,16.5,11,26.5,11
		s19.4-3.9,26.5-11l55-54.9l54.9,54.9c7.1,7.1,16.5,11,26.5,11s19.4-3.9,26.5-11s11-16.5,11-26.5s-3.9-19.4-11-26.5L303,250
		l54.9-54.9c7.1-7.1,11-16.5,11-26.5s-3.9-19.4-11-26.5C350.9,134.9,341.5,131,331.5,131L331.5,131z"/>
</g>
<line class="st3" x1="-233.9" y1="155.3" x2="-68.7" y2="320.6"/>
</svg>
